<?xml version="1.0" encoding="utf-8"?>
<!-- Generator: Adobe Illustrator 19.1.0, SVG Export Plug-In . SVG Version: 6.00 Build 0)  -->
<svg version="1.1" id="Layer_1" xmlns="http://www.w3.org/2000/svg" xmlns:xlink="http://www.w3.org/1999/xlink" x="0px" y="0px"
     viewBox="0 0 44 44" style="enable-background:new 0 0 44 44;" xml:space="preserve">
<style type="text/css">
    .st0{fill:#010101;}
</style>
<path class="st0" d="M37.1,16.4h-5.7L25.2,10c-0.5-0.5-1.2-0.6-1.6-0.2L23.4,10c-0.4,0.4-0.3,1,0.2,1.5l4.8,4.9H15.8l4.8-4.9
    c0.5-0.5,0.6-1.1,0.2-1.5l-0.2-0.2C20.1,9.4,19.4,9.4,19,10l-6.2,6.4H6.9c-0.8,0-1.4,0.5-1.4,1.3s0.6,1.3,1.4,1.3h0.2L9.2,32
    c0,1.2,1,2.4,2.2,2.4h21.4c1.2,0,1.9-1.3,2.2-2.4L37,18.9h0c0.8,0,1.4-0.5,1.4-1.3C38.5,16.8,37.9,16.4,37.1,16.4L37.1,16.4z"/>
</svg>
