<?xml version="1.0" encoding="iso-8859-1"?>
<!-- Generator: Adobe Illustrator 19.0.0, SVG Export Plug-In . SVG Version: 6.00 Build 0)  -->
<svg version="1.1" id="Capa_1" xmlns="http://www.w3.org/2000/svg" xmlns:xlink="http://www.w3.org/1999/xlink" x="0px" y="0px"
	 viewBox="0 0 512 512" style="enable-background:new 0 0 512 512;" xml:space="preserve">
<g>
	<g>
		<path d="M144.447,358.686c-4.142,0-7.5,3.358-7.5,7.5v9.012c0,4.143,3.358,7.5,7.5,7.5s7.5-3.357,7.5-7.5v-9.012
			C151.947,362.044,148.589,358.686,144.447,358.686z"/>
	</g>
</g>
<g>
	<g>
		<path d="M244.043,358.686c-4.142,0-7.5,3.358-7.5,7.5v9.012c0,4.143,3.358,7.5,7.5,7.5s7.5-3.357,7.5-7.5v-9.012
			C251.543,362.044,248.185,358.686,244.043,358.686z"/>
	</g>
</g>
<g>
	<g>
		<path d="M211.472,368.925c-3.119-2.727-7.857-2.407-10.583,0.711c-1.596,1.826-4.018,2.873-6.644,2.873
			c-2.625,0-5.047-1.047-6.643-2.873c-2.726-3.119-7.463-3.437-10.583-0.711c-3.119,2.726-3.438,7.464-0.711,10.584
			c4.445,5.085,10.984,8.001,17.938,8.001s13.493-2.916,17.938-8.001C214.909,376.389,214.59,371.652,211.472,368.925z"/>
	</g>
</g>
<g>
	<g>
		<path d="M351.283,358.686c-4.142,0-7.5,3.358-7.5,7.5v9.012c0,4.143,3.358,7.5,7.5,7.5s7.5-3.357,7.5-7.5v-9.012
			C358.784,362.044,355.426,358.686,351.283,358.686z"/>
	</g>
</g>
<g>
	<g>
		<path d="M450.879,358.686c-4.142,0-7.5,3.358-7.5,7.5v9.012c0,4.142,3.358,7.5,7.5,7.5s7.5-3.357,7.5-7.5v-9.012
			C458.38,362.044,455.022,358.686,450.879,358.686z"/>
	</g>
</g>
<g>
	<g>
		<path d="M418.308,368.926c-3.119-2.727-7.857-2.407-10.584,0.711c-1.596,1.826-4.018,2.873-6.644,2.873
			c-2.626,0-5.045-1.047-6.642-2.874c-2.726-3.119-7.464-3.437-10.584-0.71c-3.119,2.726-3.437,7.464-0.711,10.584
			c4.445,5.085,10.984,8.001,17.938,8.001s13.493-2.916,17.938-8.001C421.745,376.39,421.427,371.653,418.308,368.926z"/>
	</g>
</g>
<g>
	<g>
		<path d="M247.865,236.437c-4.142,0-7.5,3.358-7.5,7.5v9.012c0,4.142,3.358,7.5,7.5,7.5s7.5-3.358,7.5-7.5v-9.012
			C255.366,239.794,252.007,236.437,247.865,236.437z"/>
	</g>
</g>
<g>
	<g>
		<path d="M347.461,236.437c-4.142,0-7.5,3.358-7.5,7.5v9.012c0,4.142,3.358,7.5,7.5,7.5s7.5-3.358,7.5-7.5v-9.012
			C354.962,239.795,351.603,236.437,347.461,236.437z"/>
	</g>
</g>
<g>
	<g>
		<path d="M314.891,246.675c-3.118-2.726-7.857-2.408-10.583,0.711c-1.596,1.826-4.017,2.874-6.643,2.874s-5.047-1.047-6.643-2.874
			c-2.726-3.119-7.464-3.437-10.584-0.711c-3.119,2.726-3.437,7.465-0.711,10.584c4.445,5.085,10.984,8.002,17.938,8.002
			s13.493-2.917,17.938-8.002C318.328,254.139,318.009,249.402,314.891,246.675z"/>
	</g>
</g>
<g>
	<g>
		<path d="M255.988,84.536c-4.142,0-7.5,3.358-7.5,7.5v32.669c0,4.142,3.358,7.5,7.5,7.5c4.142,0,7.5-3.358,7.5-7.5V92.037
			C263.488,87.895,260.13,84.536,255.988,84.536z"/>
	</g>
</g>
<g>
	<g>
		<path d="M130.404,151.189l-23.1-23.1c-2.929-2.928-7.678-2.928-10.607,0c-2.929,2.929-2.929,7.678,0,10.608l23.1,23.1
			c2.908,2.908,7.697,2.908,10.606-0.001C133.333,158.866,133.333,154.117,130.404,151.189z"/>
	</g>
</g>
<g>
	<g>
		<path d="M83.313,249.878H50.644c-4.143,0-7.5,3.357-7.5,7.5c0,4.142,3.357,7.5,7.5,7.5h32.669c4.142,0,7.5-3.358,7.5-7.5
			C90.813,253.235,87.455,249.878,83.313,249.878z"/>
	</g>
</g>
<g>
	<g>
		<path d="M415.279,128.089c-2.929-2.928-7.678-2.928-10.608,0l-23.1,23.1c-2.929,2.929-2.929,7.678,0.001,10.608
			c2.909,2.909,7.695,2.911,10.607-0.001l23.1-23.1C418.208,135.766,418.208,131.017,415.279,128.089z"/>
	</g>
</g>
<g>
	<g>
		<path d="M461.332,249.878h-32.669c-4.142,0-7.5,3.357-7.5,7.5c0,4.142,3.358,7.5,7.5,7.5h32.669c4.142,0,7.5-3.358,7.5-7.5
			C468.832,253.235,465.474,249.878,461.332,249.878z"/>
	</g>
</g>
<g>
	<g>
		<path d="M511.515,417.306l-38.216-100.889c-5.937-15.674-21.186-26.204-37.947-26.204h-29.09l-36.381-96.046
			c-5.937-15.674-21.186-26.204-37.947-26.204H180.042c-16.76,0-32.01,10.531-37.947,26.204l-36.381,96.046h-29.09
			c-16.76,0-32.01,10.531-37.947,26.204l-13.07,34.503c-1.467,3.874,0.483,8.203,4.357,9.671c3.873,1.467,8.203-0.483,9.67-4.357
			l13.07-34.503c3.742-9.88,13.355-16.517,23.918-16.517h51.882c-0.065,0.08-0.126,0.163-0.19,0.243
			c-2.641,3.282-4.772,6.981-6.269,10.92c-0.005,0.014-0.011,0.027-0.017,0.041l-36.381,96.046h-67.31l9.935-26.227
			c1.467-3.874-0.483-8.203-4.357-9.67c-3.875-1.467-8.203,0.483-9.67,4.357c0,0-13.73,36.247-13.782,36.384
			c-1.75,4.618,1.668,10.158,7.013,10.158c0,0,496.15,0,497.024,0C509.467,427.464,513.413,422.317,511.515,417.306z
			 M263.393,182.964c0.002,0,0.003,0,0.005,0h68.534c10.565,0,20.177,6.637,23.919,16.517l34.368,90.732H205.107l34.368-90.732
			C243.217,189.602,252.829,182.964,263.393,182.964z M121.755,290.214v-0.001l34.369-90.732
			c3.742-9.88,13.355-16.517,23.918-16.517h51.882c-0.064,0.078-0.124,0.16-0.188,0.239c-2.656,3.289-4.791,7.011-6.289,10.965
			l-36.381,96.046H121.755z M101.689,412.463l34.368-90.732c3.742-9.878,13.355-16.517,23.918-16.517h68.54
			c10.565,0,20.176,6.638,23.918,16.517l25.188,66.495l9.18,24.236H101.689z M266.462,316.417
			c-1.531-4.049-3.741-7.849-6.476-11.204h75.356c-2.719,3.332-4.905,7.105-6.443,11.123c-0.01,0.027-0.022,0.054-0.033,0.081
			l-31.202,82.372L266.462,316.417z M308.525,412.464l34.368-90.733c3.742-9.878,13.355-16.517,23.918-16.517h68.539
			c10.565-0.001,20.177,6.637,23.919,16.517l34.369,90.733H308.525z"/>
	</g>
</g>
<g>
</g>
<g>
</g>
<g>
</g>
<g>
</g>
<g>
</g>
<g>
</g>
<g>
</g>
<g>
</g>
<g>
</g>
<g>
</g>
<g>
</g>
<g>
</g>
<g>
</g>
<g>
</g>
<g>
</g>
</svg>
