<?xml version="1.0" encoding="iso-8859-1"?>
<!-- Generator: Adobe Illustrator 19.0.0, SVG Export Plug-In . SVG Version: 6.00 Build 0)  -->
<svg version="1.1" id="Capa_1" xmlns="http://www.w3.org/2000/svg" xmlns:xlink="http://www.w3.org/1999/xlink" x="0px" y="0px"
	 viewBox="0 0 512 512" style="enable-background:new 0 0 512 512;" xml:space="preserve">
<path style="fill:#5C739B;" d="M347.71,108.56H150.217c-8.284,0-15,6.716-15,15V467c0,24.813,20.187,45,45,45h137.492
	c24.813,0,45-20.187,45-45V123.56C362.71,115.275,355.993,108.56,347.71,108.56z"/>
<path style="fill:#9DACCF;" d="M248.963,108.56h-98.746c-8.284,0-15,6.716-15,15v46.278h113.746V108.56z"/>
<path style="fill:#5C739B;" d="M287.085,17.483c-18.614,0-33.759,15.144-33.759,33.758S268.47,85,287.085,85
	s33.758-15.144,33.758-33.758S305.698,17.483,287.085,17.483z"/>
<path style="fill:#44B381;" d="M361.783,91.913H249.901c-8.284,0-15,6.716-15,15s6.716,15,15,15h111.882c8.284,0,15-6.716,15-15
	S370.067,91.913,361.783,91.913z"/>
<path style="fill:#C3CEE6;" d="M227.28,0h-75.847c-8.919,0-16.217,7.298-16.217,16.217V140h139.56c9.08,0,16.44-7.361,16.44-16.44
	V63.937C291.217,28.625,262.591,0,227.28,0z"/>
<path style="fill:#F9F7FF;" d="M227.28,0h-75.847c-8.919,0-16.217,7.298-16.217,16.217V140h113.738l0.007-136.23
	C242.192,1.33,234.891,0,227.28,0z"/>
<path style="fill:#9DACCF;" d="M225.873,65.127h-12.819c-8.284,0-15,6.716-15,15s6.716,15,15,15h12.819c8.284,0,15-6.716,15-15
	S234.157,65.127,225.873,65.127z"/>
<path style="fill:#44B381;" d="M135.217,156v311c0,24.813,20.187,45,45,45h137.492c24.813,0,45-20.187,45-45V156H135.217z"/>
<path style="fill:#81E395;" d="M248.963,156H135.217v311c0,24.813,20.187,45,45,45h68.746V156z"/>
<g>
</g>
<g>
</g>
<g>
</g>
<g>
</g>
<g>
</g>
<g>
</g>
<g>
</g>
<g>
</g>
<g>
</g>
<g>
</g>
<g>
</g>
<g>
</g>
<g>
</g>
<g>
</g>
<g>
</g>
</svg>
