<?xml version="1.0" standalone="no"?>
<!DOCTYPE svg PUBLIC "-//W3C//DTD SVG 20010904//EN"
 "http://www.w3.org/TR/2001/REC-SVG-20010904/DTD/svg10.dtd">
<svg version="1.0" xmlns="http://www.w3.org/2000/svg"
 width="700.000000pt" height="700.000000pt" viewBox="0 0 700.000000 700.000000"
 preserveAspectRatio="xMidYMid meet">
<metadata>
Created by potrace 1.11, written by Peter Selinger 2001-2013
</metadata>
<g transform="translate(0.000000,700.000000) scale(0.100000,-0.100000)"
fill="#000000" stroke="none">
<path d="M3445 6986 c-28 -12 -84 -67 -86 -84 0 -4 -2 -14 -4 -22 -2 -8 -5
-26 -8 -40 -9 -40 -106 -442 -116 -480 -6 -19 -13 -50 -16 -69 -10 -58 -18
-65 -80 -67 -83 -4 -123 -38 -151 -130 -17 -53 -52 -194 -59 -234 -1 -3 -14
-57 -29 -120 -16 -63 -29 -119 -30 -125 -1 -5 -11 -45 -21 -87 l-19 -78 -55 0
c-66 0 -111 -23 -141 -72 -19 -31 -20 -51 -20 -368 l0 -335 -46 -1 c-49 -2
-84 -22 -115 -65 -25 -34 -30 -81 -13 -147 22 -89 114 -473 119 -496 2 -12 7
-31 10 -42 6 -19 1 -22 -31 -28 -71 -14 -125 -103 -105 -172 9 -29 38 -92 200
-427 44 -93 78 -173 75 -178 -3 -5 -11 -9 -18 -9 -19 0 -54 -41 -67 -79 l-11
-32 -27 24 c-32 30 -63 41 -118 42 l-42 0 -123 185 c-68 101 -135 193 -149
203 -32 23 -106 30 -138 12 -24 -12 -31 -7 -195 156 -186 185 -205 197 -282
178 -24 -6 -49 -17 -55 -25 -9 -11 -18 -9 -53 15 -106 73 -364 238 -388 248
-32 14 -92 8 -128 -14 -28 -16 -29 -15 -112 37 -45 29 -135 88 -198 130 -63
42 -131 83 -151 90 -101 37 -205 -55 -185 -163 4 -19 60 -115 132 -223 154
-233 152 -229 131 -252 -24 -27 -31 -92 -15 -133 8 -18 73 -121 143 -227 127
-192 128 -194 113 -220 -26 -43 -31 -95 -15 -134 8 -20 83 -104 177 -198 134
-134 161 -166 155 -184 -18 -61 -17 -95 4 -133 21 -37 79 -78 363 -263 36 -23
39 -28 35 -65 -6 -57 16 -106 62 -135 21 -14 126 -61 234 -105 179 -73 197
-82 197 -104 0 -38 37 -106 65 -121 24 -13 24 -15 8 -23 -10 -5 -33 -24 -51
-41 -32 -30 -35 -31 -136 -32 -129 -2 -178 -25 -204 -93 -7 -20 -24 -28 -103
-48 -130 -33 -175 -57 -199 -103 -16 -31 -27 -39 -67 -50 -205 -54 -234 -71
-253 -149 -9 -39 -9 -55 3 -82 25 -58 57 -78 182 -113 112 -31 119 -35 136
-68 28 -55 55 -68 237 -113 29 -7 54 -14 55 -16 2 -2 8 -16 14 -30 7 -15 28
-39 48 -55 34 -26 42 -27 147 -28 107 -2 111 -2 134 -29 28 -33 77 -54 119
-52 17 1 67 12 113 24 l82 21 28 -20 c55 -41 111 -32 238 38 65 35 73 38 105
27 55 -18 55 -18 373 117 144 61 270 114 281 118 20 8 20 4 19 -341 0 -416 2
-427 90 -464 69 -29 134 -9 176 53 l25 36 1 358 c0 197 3 358 7 359 9 1 64
-22 367 -151 165 -71 225 -92 259 -91 24 0 49 5 55 10 8 7 22 5 42 -5 136 -72
167 -85 200 -88 28 -3 51 3 81 20 l42 24 90 -24 c50 -13 98 -23 108 -21 10 2
26 4 35 4 10 1 36 17 58 38 l41 36 109 2 c103 2 112 4 146 30 20 15 40 40 46
55 7 22 19 30 56 40 196 52 220 63 248 116 17 30 28 38 89 55 39 11 93 27 122
36 89 26 135 101 112 185 -17 64 -58 88 -232 133 -56 15 -71 23 -83 46 -31 60
-48 69 -246 123 -43 12 -58 22 -64 39 -20 66 -70 88 -200 90 -101 1 -104 1
-131 30 -16 16 -39 33 -52 38 l-25 10 32 22 c35 25 50 52 58 105 3 21 7 37 7
38 1 0 45 18 97 39 52 21 113 46 135 55 22 10 75 32 118 50 112 46 149 94 140
180 -3 30 1 38 29 56 193 127 343 228 353 238 31 31 39 97 20 163 -6 18 20 48
158 186 132 132 168 173 176 204 12 48 8 83 -15 122 l-18 30 66 98 c133 199
198 303 207 327 13 34 5 105 -15 127 -9 10 -14 24 -11 31 3 7 58 92 122 188
131 198 154 241 155 288 0 93 -96 161 -186 132 -21 -7 -123 -69 -227 -137
-103 -68 -194 -126 -201 -129 -7 -3 -28 4 -47 15 -36 20 -85 22 -129 3 -14 -6
-113 -69 -220 -140 -159 -105 -198 -127 -210 -117 -46 35 -121 40 -165 11 -11
-7 -93 -86 -181 -174 -136 -136 -163 -158 -178 -150 -10 6 -38 12 -62 13 -70
5 -96 -20 -232 -225 l-122 -185 -55 -1 c-46 -1 -61 -6 -94 -32 l-40 -32 -11
34 c-10 32 -51 76 -69 76 -26 0 -14 33 70 207 200 411 193 395 191 446 -2 73
-59 137 -122 137 -16 0 -20 5 -16 18 3 9 10 39 16 65 6 27 33 142 61 255 59
238 62 256 62 298 0 87 -60 137 -170 143 -10 1 -13 75 -13 334 0 314 -1 334
-20 365 -30 48 -75 72 -140 72 l-56 0 -33 135 c-18 74 -34 144 -36 156 -2 11
-7 29 -10 39 -3 10 -7 27 -9 37 -3 10 -21 88 -41 173 -36 147 -40 157 -77 193
-38 36 -50 40 -129 41 l-37 0 -26 105 c-14 58 -48 201 -75 316 -28 116 -56
226 -62 245 -12 37 -42 76 -71 91 -31 17 -92 19 -123 5z"/>
</g>
</svg>
