<svg xmlns="http://www.w3.org/2000/svg" width="50" height="50" viewBox="0 0 50 50">
    <g fill="none" fill-rule="nonzero">
        <path fill="#CDFCF8" d="M16.682 41.925l2.26.189a2.055 2.055 0 0 0 1.756-.714l24.047-28.416-1.404-1.208-26.565 26.22a1.914 1.914 0 0 0-.54 1.78l.446 2.15zM36.251 7.29l-2.259-.204a2.07 2.07 0 0 0-1.765.706L8.047 36.098l1.396 1.224 26.667-26.11c.479-.459.69-1.13.557-1.78L36.25 7.29z"/>
        <path fill="#529994" d="M6.957 36.537a.51.51 0 0 1-.055-.713L31.412 7.14a3.137 3.137 0 0 1 2.674-1.074l2.66.235c.227.02.417.185.47.408l.51 2.525a2.918 2.918 0 0 1-.84 2.698L9.843 38.388a.533.533 0 0 1-.73 0l-2.156-1.85zM36.25 7.29l-2.259-.204a2.07 2.07 0 0 0-1.765.706L8.047 36.098l1.396 1.224 26.667-26.11c.479-.459.69-1.13.557-1.78L36.25 7.29zM36.659 6.859l1.317-1.42"/>
        <path fill="#529994" d="M36.353 7.188a.431.431 0 0 1 0-.62l1.286-1.427a.478.478 0 0 1 .643 0 .44.44 0 0 1 0 .62l-1.294 1.396a.47.47 0 0 1-.635 0v.031zM25.804 14.859a.502.502 0 0 1-.173-.4.533.533 0 0 1 .55-.494l6.839.306a.525.525 0 0 1 .51.54.533.533 0 0 1-.557.487l-6.84-.306a.541.541 0 0 1-.33-.133zM19.725 21.824a.51.51 0 0 1-.001-.763.518.518 0 0 1 .378-.132l6.047.22a.518.518 0 1 1-.047 1.027l-6.04-.22a.565.565 0 0 1-.337-.132zM16.369 31.133l-2.644-2.306a.518.518 0 0 1 0-.729.549.549 0 0 1 .785-.04l2.635 2.354a.494.494 0 0 1 .04.721.541.541 0 0 1-.816 0zM15.898 42.78a.541.541 0 0 1-.165-.282l-.517-2.533a2.941 2.941 0 0 1 .831-2.69L42.95 10.686c.21-.19.528-.19.737 0l2.141 1.883a.518.518 0 0 1 .055.706L21.57 42.082a3.137 3.137 0 0 1-2.69 1.09l-2.683-.266a.533.533 0 0 1-.298-.126zm27.451-31.027L16.8 37.988a1.976 1.976 0 0 0-.549 1.773l.447 2.164 2.243.197c.67.066 1.33-.2 1.765-.714l24.04-28.432-1.397-1.223zM16.298 42.357l-1.325 1.42"/>
        <path fill="#529994" d="M14.675 44.106a.431.431 0 0 1-.04-.62l1.326-1.42a.463.463 0 0 1 .643 0 .424.424 0 0 1 0 .612l-1.326 1.428a.47.47 0 0 1-.603 0zM23.694 38.396a.494.494 0 0 1-.165-.306l-1.02-6.565a.518.518 0 0 1 .448-.58.525.525 0 0 1 .604.431l1.012 6.565a.51.51 0 0 1-.448.58.533.533 0 0 1-.43-.125zM30.047 31.063a.518.518 0 0 1-.172-.314l-.848-5.804a.518.518 0 0 1 .448-.58.525.525 0 0 1 .596.439l.854 5.804a.518.518 0 0 1-.454.58.541.541 0 0 1-.424-.125zM38.4 21.055l-2.596-2.306a.502.502 0 0 1-.04-.73.541.541 0 0 1 .785 0l2.643 2.306a.502.502 0 0 1 0 .722.541.541 0 0 1-.792.008z"/>
        <path fill="#FFF" d="M16.031 30.843l-1.984-1.78-6 7.035 1.396 1.224zM38.753 20.012l-2.055-1.71 6.643-6.533 1.483 1.247z"/>
    </g>
</svg>
